<?xml version="1.0" standalone="no"?>
<!DOCTYPE svg PUBLIC "-//W3C//DTD SVG 20010904//EN"
 "http://www.w3.org/TR/2001/REC-SVG-20010904/DTD/svg10.dtd">
<svg version="1.0" xmlns="http://www.w3.org/2000/svg"
 width="50px" height="50px" viewBox="0 0 512.000000 512.000000"
 preserveAspectRatio="xMidYMid meet">

<g transform="translate(0.000000,512.000000) scale(0.100000,-0.100000)"
fill="#baff39" stroke="none">
<path d="M2092 4420 c-19 -4 -46 -20 -62 -35 -15 -15 -209 -298 -430 -630
l-403 -604 -301 -3 c-283 -3 -303 -4 -336 -24 -52 -30 -82 -88 -77 -147 5 -54
27 -91 77 -124 26 -18 47 -23 96 -23 58 0 64 -2 69 -22 3 -13 81 -402 174
-866 195 -974 183 -936 320 -1073 91 -91 189 -143 309 -165 115 -20 1951 -20
2067 1 119 21 214 72 306 164 137 137 125 99 320 1073 93 464 171 853 174 866
5 20 11 22 69 22 69 0 111 20 149 71 49 66 24 174 -50 220 -37 24 -43 24 -339
27 l-301 3 -404 605 c-222 333 -418 618 -435 634 -48 41 -103 48 -162 18 -68
-33 -95 -78 -90 -148 4 -53 14 -70 356 -582 l352 -528 -980 0 -980 0 352 528
c342 512 352 529 356 582 5 69 -22 114 -88 148 -47 23 -56 24 -108 12z m1978
-1597 c0 -42 -327 -1627 -342 -1660 -23 -49 -81 -105 -135 -130 -36 -17 -101
-18 -1033 -18 l-995 0 -48 24 c-54 27 -121 98 -136 144 -10 29 -331 1621 -331
1639 0 5 680 8 1510 8 831 0 1510 -3 1510 -7z"/>
<path d="M2050 2268 c-19 -13 -45 -43 -57 -68 -22 -42 -23 -55 -23 -280 0
-225 1 -238 23 -280 33 -66 78 -93 148 -88 65 5 109 32 133 82 13 29 16 74 16
286 0 279 -4 300 -63 342 -47 34 -132 36 -177 6z"/>
<path d="M2912 2273 c-18 -9 -43 -30 -55 -47 -21 -30 -22 -41 -25 -294 -3
-228 -1 -267 14 -297 24 -51 67 -78 133 -83 66 -4 111 20 145 78 20 33 21 51
21 290 0 239 -1 257 -21 290 -43 74 -134 102 -212 63z"/>
</g>
</svg>
