<?xml version="1.0" standalone="no"?>
<!DOCTYPE svg PUBLIC "-//W3C//DTD SVG 20010904//EN"
 "http://www.w3.org/TR/2001/REC-SVG-20010904/DTD/svg10.dtd">
<svg version="1.0" xmlns="http://www.w3.org/2000/svg"
 width="500.000000pt" height="500.000000pt" viewBox="0 0 500.000000 500.000000"
 preserveAspectRatio="xMidYMid meet">

<g transform="translate(0.000000,500.000000) scale(0.100000,-0.100000)"
fill="#000000" stroke="none">
<path d="M135 4976 c-60 -28 -87 -56 -114 -116 -21 -45 -21 -51 -21 -2360 l0
-2315 24 -51 c26 -56 74 -98 133 -120 56 -20 4630 -20 4686 0 59 22 107 64
133 120 l24 51 0 2315 c0 2309 0 2315 -21 2360 -27 60 -54 88 -114 116 l-50
24 -2315 0 -2315 0 -50 -24z m3595 -706 c140 -6 270 -13 288 -16 45 -9 98 -61
110 -109 13 -48 27 -336 44 -862 13 -431 12 -438 -46 -474 -39 -24 -93 -24
-127 -1 -14 9 -64 55 -110 102 -134 135 -283 226 -469 290 -157 53 -421 85
-639 77 -230 -8 -358 -51 -446 -149 -52 -58 -69 -115 -63 -206 11 -145 101
-231 292 -278 139 -34 515 -27 883 16 142 17 168 18 197 6 40 -17 73 -57 85
-105 15 -54 51 -684 43 -729 -11 -58 -53 -91 -107 -83 -11 1 -65 25 -120 52
-225 110 -488 172 -740 173 -213 1 -325 -29 -414 -110 -96 -86 -126 -188 -118
-399 7 -168 29 -306 103 -644 60 -273 61 -299 19 -350 -58 -68 -163 -80 -723
-81 -371 0 -638 12 -699 31 -43 14 -80 44 -100 82 -15 28 -16 74 -15 392 5
955 58 2250 122 3013 24 279 31 298 125 338 34 14 97 18 395 24 555 11 1948
11 2230 0z"/>
</g>
</svg>
